<svg width="479" height="461" viewBox="0 0 479 461" fill="none" xmlns="http://www.w3.org/2000/svg">
<path d="M477.101 214.78C464.691 93.74 364.861 3.1 242.231 0H236.231C113.561 3.1 13.731 93.74 1.32096 214.78C-11.219 337.17 67.6009 430.34 149.471 460.93C147.121 457.49 145.471 454.93 143.721 452.56C98.4309 390.96 124.481 300.67 195.721 273.07C206.021 269.07 216.191 267.66 224.131 270.86C233.001 274.46 239.231 283.03 239.231 283.03C239.411 282.78 245.461 274.43 254.281 270.86C262.221 267.66 272.391 269.07 282.691 273.07C353.941 300.67 379.991 390.96 334.691 452.56C332.911 454.97 331.291 457.49 328.941 460.93C410.821 430.34 489.641 337.17 477.101 214.78ZM239.401 263.92C219.971 263.92 195.661 269.32 195.661 269.32L239.751 248.62L283.551 269.32C283.551 269.32 258.831 263.92 239.401 263.92Z" fill="url(#paint0_radial_7069_33314)"/>
<defs>
<radialGradient id="paint0_radial_7069_33314" cx="0" cy="0" r="1" gradientUnits="userSpaceOnUse" gradientTransform="translate(427.717 71.9004) scale(480.479 605.535)">
<stop stop-color="#00B7AA"/>
<stop offset="1" stop-color="#6CE0C9"/>
</radialGradient>
</defs>
</svg>
